<svg xmlns="http://www.w3.org/2000/svg" xmlns:xlink="http://www.w3.org/1999/xlink" viewBox="0 0 436.69 127.52"><defs><style>.a{fill:#2364af;}.b{fill:gray;}.c{fill:url(#a);}.d{fill:#fff;}</style><radialGradient id="a" cx="302.07" cy="52.14" r="36.76" gradientUnits="userSpaceOnUse"><stop offset="0" stop-color="#14d9ff"/><stop offset="1" stop-color="#172f7c"/></radialGradient></defs><title>logo_solo_divisoft</title><path class="a" d="M74.53,1.3V94.54H61.18V85.19h-.37Q53.39,96.5,37,96.49q-19.51,0-29.29-12.86Q0,73.38,0,58.57T9,34.41q9.65-9.73,26-9.74A31.81,31.81,0,0,1,60.06,36.23l.25-.91V1.3ZM14.58,60.39q0,11.82,5.56,18.7,5.94,7.53,17.06,7.53A23.9,23.9,0,0,0,52,82q8.16-6.11,8.16-18.18,0-28.83-22.62-28.84Q14.59,34.93,14.58,60.39Z"/><path class="a" d="M98,14.28H83.79V1.3H98Zm0,12.34V94.54H83.79V26.62Z"/><path class="a" d="M140.2,82l23.85-55.33H179.5l-32,67.92H132.41L101.64,26.62h16.43L140,82Z"/><path class="a" d="M196.56,14.28H182.34V1.3h14.22Zm0,12.34V94.54H182.34V26.62Z"/><path class="a" d="M266.76,46h-13.6q-.49-11.41-20-11.43a28.33,28.33,0,0,0-10.51,1.82c-4.12,1.74-6.18,4.33-6.18,7.8A6.28,6.28,0,0,0,220,50q2.72,1.43,11.74,3.24l14.09,2.86q13,2.59,18.29,6.76A13.45,13.45,0,0,1,269.48,74q0,10.28-9.34,16.37t-23.91,6.1q-21.75,0-30.41-8.83-5.19-5.32-5.68-14.93h13.6Q215,86.62,236.1,86.62q8.16,0,13.47-2.6,5.82-2.85,5.82-8.18a6.49,6.49,0,0,0-3.84-6q-3.33-1.82-12.85-3.77l-16.44-3.24q-19.41-3.9-19.4-16.5,0-10.51,9.64-16.49,8.64-5.19,22.12-5.2,19.15,0,27.31,9.35A18,18,0,0,1,266.76,46Z"/><path class="a" d="M424.58,36.1V26.62H411.11v-19H397v19H374.4V18.18q0-7.92,8.41-7.92h5.81V.25c-3.05-.17-5.2-.25-6.43-.25q-21.88,0-21.88,14.93V26.62H348.7V36.1h11.61V94.54H374.4V36.1H397V80.91q0,6.89,3.21,10.39,4.08,4.15,13.72,4.15-1.36,0,10.63-.91v-9h-4.94q-8.53,0-8.53-5.32V36.1Z"/><path class="b" d="M15.65,106.2v20.88h-2.8V125h-.08a5.42,5.42,0,0,1-5,2.53,7,7,0,0,1-6.15-2.88A9.58,9.58,0,0,1,0,119a7.77,7.77,0,0,1,1.89-5.41,7.1,7.1,0,0,1,5.45-2.18A6.51,6.51,0,0,1,12.62,114l.05-.2V106.2ZM3.07,119.43a6.77,6.77,0,0,0,1.17,4.19,4.16,4.16,0,0,0,3.58,1.69,4.78,4.78,0,0,0,3.11-1,4.9,4.9,0,0,0,1.71-4.07q0-6.47-4.74-6.46T3.07,119.43Z"/><path class="b" d="M21.23,109.1h-3v-2.9h3Zm0,2.77v15.21h-3V111.87Z"/><path class="b" d="M36.61,116.2H33.76c-.07-1.7-1.47-2.56-4.2-2.56a5.62,5.62,0,0,0-2.21.41,1.88,1.88,0,0,0-1.3,1.74,1.42,1.42,0,0,0,.76,1.31,10.2,10.2,0,0,0,2.46.73l3,.64A9.29,9.29,0,0,1,36.07,120a3.11,3.11,0,0,1,1.11,2.51,4.25,4.25,0,0,1-2,3.66,8.63,8.63,0,0,1-5,1.37q-4.56,0-6.38-2a5.19,5.19,0,0,1-1.19-3.34h2.85c.18,2.07,1.74,3.11,4.7,3.11a6.09,6.09,0,0,0,2.83-.59,2,2,0,0,0,1.22-1.83,1.46,1.46,0,0,0-.81-1.33,10.28,10.28,0,0,0-2.7-.85L27.27,120q-4.07-.87-4.07-3.69a4.22,4.22,0,0,1,2-3.7,8.52,8.52,0,0,1,4.65-1.16q4,0,5.73,2.1A4.18,4.18,0,0,1,36.61,116.2Z"/><path class="b" d="M51.22,122.31h3a5.3,5.3,0,0,1-.78,1.86,6.66,6.66,0,0,1-2.36,2.3,9.54,9.54,0,0,1-4.8,1,7.92,7.92,0,0,1-5.81-2.15,7.45,7.45,0,0,1-2.07-5.47,8.53,8.53,0,0,1,2-6,8.19,8.19,0,0,1,6.4-2.47,6.94,6.94,0,0,1,5.71,2.41,10,10,0,0,1,1.89,6.46H41.54q0,5,5.14,5A5.17,5.17,0,0,0,50,124.23,2.88,2.88,0,0,0,51.22,122.31Zm-9.68-4h9.83c-.22-3-1.87-4.54-4.93-4.54A4.87,4.87,0,0,0,43,115.1,4.23,4.23,0,0,0,41.54,118.27Z"/><path class="b" d="M70.83,116.73v10.35h-3v-9.36a4.58,4.58,0,0,0-.8-3,3.86,3.86,0,0,0-3-1,4.64,4.64,0,0,0-3,1,4.89,4.89,0,0,0-1.68,4.07v8.29h-3V111.87h2.8V114h.07a6.47,6.47,0,0,1,5.32-2.59,7.52,7.52,0,0,1,4.13,1A4.75,4.75,0,0,1,70.83,116.73ZM67.4,106.08h1.69A3.83,3.83,0,0,1,68,108.35a3.12,3.12,0,0,1-2.28.9,7.61,7.61,0,0,1-2-.38l-.88-.26a8.63,8.63,0,0,0-2.05-.44,1.63,1.63,0,0,0-1.59,1.28H57.57a3.26,3.26,0,0,1,3.53-3.11,7,7,0,0,1,2.28.44l.75.26a5.42,5.42,0,0,0,1.59.38A1.59,1.59,0,0,0,67.4,106.08Z"/><path class="b" d="M71.89,119.46a8.07,8.07,0,0,1,2-5.5,7.88,7.88,0,0,1,6.2-2.53A7.91,7.91,0,0,1,86.29,114a8.66,8.66,0,0,1,0,11,7.91,7.91,0,0,1-6.23,2.53,7.88,7.88,0,0,1-6.2-2.53A8,8,0,0,1,71.89,119.46Zm3.06,0a6.83,6.83,0,0,0,1,3.67,5.11,5.11,0,0,0,8.33,0,7.5,7.5,0,0,0,0-7.34,5.11,5.11,0,0,0-8.33,0A6.81,6.81,0,0,0,75,119.46Z"/><path class="b" d="M103.38,116.2h-2.85c-.07-1.7-1.47-2.56-4.2-2.56a5.66,5.66,0,0,0-2.21.41,1.88,1.88,0,0,0-1.3,1.74,1.42,1.42,0,0,0,.76,1.31,10.2,10.2,0,0,0,2.46.73l3,.64a9.23,9.23,0,0,1,3.84,1.51,3.11,3.11,0,0,1,1.11,2.51,4.25,4.25,0,0,1-2,3.66,8.61,8.61,0,0,1-5,1.37q-4.56,0-6.38-2a5.19,5.19,0,0,1-1.19-3.34h2.85c.18,2.07,1.74,3.11,4.7,3.11a6.09,6.09,0,0,0,2.83-.59,2,2,0,0,0,1.22-1.83,1.46,1.46,0,0,0-.81-1.33,10,10,0,0,0-2.69-.85L94,120Q90,119.11,90,116.29a4.24,4.24,0,0,1,2-3.7,8.55,8.55,0,0,1,4.65-1.16q4,0,5.73,2.1A4.13,4.13,0,0,1,103.38,116.2Z"/><path class="b" d="M120.63,124.26l5-12.39h3.24l-6.72,15.21H119l-6.46-15.21H116l4.59,12.39Z"/><path class="b" d="M133.11,109.1h-3v-2.9h3Zm0,2.77v15.21h-3V111.87Z"/><path class="b" d="M148.49,116.2h-2.85c-.07-1.7-1.47-2.56-4.2-2.56a5.66,5.66,0,0,0-2.21.41,1.87,1.87,0,0,0-1.29,1.74,1.39,1.39,0,0,0,.75,1.31,10.2,10.2,0,0,0,2.46.73l3,.64A9.29,9.29,0,0,1,148,120a3.11,3.11,0,0,1,1.11,2.51,4.24,4.24,0,0,1-2,3.66,8.58,8.58,0,0,1-5,1.37q-4.56,0-6.38-2a5.19,5.19,0,0,1-1.19-3.34h2.86c.16,2.07,1.73,3.11,4.69,3.11a6.09,6.09,0,0,0,2.83-.59,2,2,0,0,0,1.22-1.83,1.46,1.46,0,0,0-.81-1.33,10.15,10.15,0,0,0-2.7-.85l-3.45-.73q-4.07-.87-4.07-3.69a4.24,4.24,0,0,1,2-3.7,8.52,8.52,0,0,1,4.65-1.16q4,0,5.73,2.1A4.18,4.18,0,0,1,148.49,116.2Z"/><path class="b" d="M154.15,109.1h-3v-2.9h3Zm0,2.77v15.21h-3V111.87Z"/><path class="b" d="M155.65,119.46a8.07,8.07,0,0,1,2-5.5,8.9,8.9,0,0,1,12.43,0,8.66,8.66,0,0,1,0,11,8.9,8.9,0,0,1-12.43,0A8,8,0,0,1,155.65,119.46Zm3.06,0a6.83,6.83,0,0,0,1,3.67,5.11,5.11,0,0,0,8.33,0,7.5,7.5,0,0,0,0-7.34,5.11,5.11,0,0,0-8.33,0A6.81,6.81,0,0,0,158.71,119.46Z"/><path class="b" d="M188.62,116.73v10.35h-3v-9.36a4.53,4.53,0,0,0-.8-3,3.83,3.83,0,0,0-3-1,4.6,4.6,0,0,0-3,1,4.86,4.86,0,0,0-1.69,4.07v8.29h-2.95V111.87h2.77V114h.08a6.47,6.47,0,0,1,5.32-2.59,7.48,7.48,0,0,1,4.12,1A4.73,4.73,0,0,1,188.62,116.73Z"/><path class="b" d="M193.86,116.49h-2.72q.18-5.05,7.26-5.06a10.24,10.24,0,0,1,3.82.67,3.72,3.72,0,0,1,2.74,3.6v8.79c0,.6.32.91,1,.91a4.37,4.37,0,0,0,1-.18v1.86a9.38,9.38,0,0,1-1.61.29,3.5,3.5,0,0,1-2.51-.72,2.4,2.4,0,0,1-.63-1.6,9,9,0,0,1-6.38,2.47,6.26,6.26,0,0,1-4-1.22,3.86,3.86,0,0,1-1.54-3.17q0-4.2,5.36-4.78l4.88-.52a1.6,1.6,0,0,0,1.56-1.8q0-2.48-4.15-2.48a4.33,4.33,0,0,0-3.22,1A3.71,3.71,0,0,0,193.86,116.49Zm8.12,5.32v-2.5c-.47.33-2.09.65-4.87,1q-3.8.43-3.79,2.47c0,1.76,1.07,2.65,3.21,2.65a7,7,0,0,0,3.79-1.05A3,3,0,0,0,202,121.81Z"/><path class="b" d="M211.63,118.24v8.84h-3V111.87h2.8v2.53h.08a5.79,5.79,0,0,1,4.95-3,3.21,3.21,0,0,1,.78.09v2.65h-1.12a4.57,4.57,0,0,0-3.26,1.17A3.84,3.84,0,0,0,211.63,118.24Z"/><path class="b" d="M221.75,109.1h-3v-2.9h3Zm0,2.77v15.21h-3V111.87Z"/><path class="b" d="M223.25,119.46a8.07,8.07,0,0,1,2-5.5,8.9,8.9,0,0,1,12.43,0,8.66,8.66,0,0,1,0,11,8.9,8.9,0,0,1-12.43,0A8,8,0,0,1,223.25,119.46Zm3.07,0a6.91,6.91,0,0,0,1,3.67,5.11,5.11,0,0,0,8.33,0,7.5,7.5,0,0,0,0-7.34,5.11,5.11,0,0,0-8.33,0A6.89,6.89,0,0,0,226.32,119.46Z"/><path class="b" d="M254.74,116.2h-2.85c-.07-1.7-1.47-2.56-4.2-2.56a5.66,5.66,0,0,0-2.21.41,1.87,1.87,0,0,0-1.29,1.74,1.41,1.41,0,0,0,.75,1.31,10.2,10.2,0,0,0,2.46.73l3,.64A9.17,9.17,0,0,1,254.2,120a3.12,3.12,0,0,1,1.12,2.51,4.26,4.26,0,0,1-2,3.66,8.6,8.6,0,0,1-5,1.37c-3.05,0-5.17-.66-6.38-2a5.14,5.14,0,0,1-1.2-3.34h2.86q.25,3.1,4.69,3.11a6.09,6.09,0,0,0,2.83-.59,2,2,0,0,0,1.22-1.83,1.46,1.46,0,0,0-.8-1.33,10.28,10.28,0,0,0-2.7-.85l-3.45-.73q-4.08-.87-4.08-3.69a4.22,4.22,0,0,1,2-3.7,8.51,8.51,0,0,1,4.64-1.16q4,0,5.73,2.1A4.13,4.13,0,0,1,254.74,116.2Z"/><path class="b" d="M280.48,106.2v20.88h-2.8V125h-.08a5.44,5.44,0,0,1-5,2.53,7.06,7.06,0,0,1-6.15-2.88,9.58,9.58,0,0,1-1.61-5.62,7.78,7.78,0,0,1,1.9-5.41,7.08,7.08,0,0,1,5.45-2.18,6.49,6.49,0,0,1,5.26,2.59l.06-.2V106.2ZM267.9,119.43a6.83,6.83,0,0,0,1.16,4.19,4.18,4.18,0,0,0,3.58,1.69,4.82,4.82,0,0,0,3.12-1,4.9,4.9,0,0,0,1.71-4.07q0-6.47-4.75-6.46C269.5,113.73,267.9,115.63,267.9,119.43Z"/><path class="b" d="M295,122.31h3a5.3,5.3,0,0,1-.78,1.86,6.66,6.66,0,0,1-2.36,2.3,9.54,9.54,0,0,1-4.8,1,7.92,7.92,0,0,1-5.81-2.15,7.46,7.46,0,0,1-2.08-5.47,8.53,8.53,0,0,1,2-6,8.23,8.23,0,0,1,6.41-2.47,7,7,0,0,1,5.71,2.41,10,10,0,0,1,1.89,6.46H285.33q0,5,5.13,5a5.19,5.19,0,0,0,3.3-1.08A2.83,2.83,0,0,0,295,122.31Zm-9.67-4h9.83q-.35-4.55-4.93-4.54a4.85,4.85,0,0,0-3.46,1.37A4.23,4.23,0,0,0,285.33,118.27Z"/><path class="b" d="M321.62,116.2h-2.85c-.07-1.7-1.48-2.56-4.21-2.56a5.6,5.6,0,0,0-2.2.41,1.87,1.87,0,0,0-1.3,1.74,1.41,1.41,0,0,0,.75,1.31,10.18,10.18,0,0,0,2.47.73l3,.64a9.29,9.29,0,0,1,3.85,1.51,3.11,3.11,0,0,1,1.11,2.51,4.24,4.24,0,0,1-2,3.66,8.58,8.58,0,0,1-5,1.37q-4.56,0-6.38-2a5.14,5.14,0,0,1-1.19-3.34h2.85c.17,2.07,1.74,3.11,4.69,3.11a6,6,0,0,0,2.83-.59,2,2,0,0,0,1.22-1.83,1.46,1.46,0,0,0-.8-1.33,10.28,10.28,0,0,0-2.7-.85l-3.45-.73c-2.72-.58-4.07-1.81-4.07-3.69a4.22,4.22,0,0,1,2-3.7,8.52,8.52,0,0,1,4.65-1.16q4,0,5.73,2.1A4.18,4.18,0,0,1,321.62,116.2Z"/><path class="b" d="M323.23,119.46a8,8,0,0,1,2-5.5,8.89,8.89,0,0,1,12.42,0,8.63,8.63,0,0,1,0,11,8.89,8.89,0,0,1-12.42,0A8,8,0,0,1,323.23,119.46Zm3.06,0a6.83,6.83,0,0,0,1,3.67,5.11,5.11,0,0,0,8.33,0,7.56,7.56,0,0,0,0-7.34,5.11,5.11,0,0,0-8.33,0A6.81,6.81,0,0,0,326.29,119.46Z"/><path class="b" d="M348.49,114h-3v13.09h-3V114h-2.44v-2.12h2.44v-2.62q0-3.34,4.59-3.35.39,0,1.35.06v2.24h-1.22a1.56,1.56,0,0,0-1.76,1.78v1.89h3Z"/><path class="b" d="M356.69,114h-2.83v9.89c0,.8.6,1.2,1.79,1.2h1v2c-1.68.14-2.42.21-2.23.21a3.73,3.73,0,0,1-2.88-.94,3.47,3.47,0,0,1-.67-2.32V114h-2.42v-2.12h2.42v-4.25h2.95v4.25h2.83Z"/><path class="b" d="M368.42,115.3,365,127.08h-3.06l-5.11-15.21h3.24l3.38,11.95h.07l3.4-11.95h3.3l3.45,11.95h.07l3.56-11.95h3l-5.14,15.21h-3.06l-3.58-11.78Z"/><path class="b" d="M384.42,116.49H381.7q.18-5.05,7.26-5.06a10.15,10.15,0,0,1,3.81.67,3.72,3.72,0,0,1,2.75,3.6v8.79c0,.6.32.91,1,.91a4.34,4.34,0,0,0,1-.18v1.86a9.38,9.38,0,0,1-1.61.29,3.5,3.5,0,0,1-2.51-.72,2.36,2.36,0,0,1-.63-1.6,9,9,0,0,1-6.38,2.47,6.26,6.26,0,0,1-4-1.22,3.86,3.86,0,0,1-1.54-3.17q0-4.2,5.37-4.78l4.87-.52a1.6,1.6,0,0,0,1.56-1.8q0-2.48-4.15-2.48a4.33,4.33,0,0,0-3.22,1A3.71,3.71,0,0,0,384.42,116.49Zm8.12,5.32v-2.5c-.47.33-2.09.65-4.87,1q-3.8.43-3.79,2.47c0,1.76,1.07,2.65,3.21,2.65a6.92,6.92,0,0,0,3.79-1.05A3,3,0,0,0,392.54,121.81Z"/><path class="b" d="M402.19,118.24v8.84h-3V111.87H402v2.53h.08a5.79,5.79,0,0,1,5-3,3.21,3.21,0,0,1,.78.09v2.65H406.7a4.54,4.54,0,0,0-3.26,1.17A3.84,3.84,0,0,0,402.19,118.24Z"/><path class="b" d="M421.26,122.31h3a5.3,5.3,0,0,1-.78,1.86,6.66,6.66,0,0,1-2.36,2.3,9.54,9.54,0,0,1-4.8,1,7.94,7.94,0,0,1-5.81-2.15,7.45,7.45,0,0,1-2.07-5.47,8.53,8.53,0,0,1,2.05-6,8.19,8.19,0,0,1,6.4-2.47,6.94,6.94,0,0,1,5.71,2.41,10,10,0,0,1,1.89,6.46H411.58q0,5,5.14,5a5.15,5.15,0,0,0,3.29-1.08A2.84,2.84,0,0,0,421.26,122.31Zm-9.68-4h9.83c-.22-3-1.87-4.54-4.93-4.54A4.87,4.87,0,0,0,413,115.1,4.23,4.23,0,0,0,411.58,118.27Z"/><path d="M432,26.65a4.75,4.75,0,1,1-4.74,4.74A4.74,4.74,0,0,1,432,26.65Zm0,8.84a4.1,4.1,0,1,0-4.1-4.1A4.09,4.09,0,0,0,432,35.49Zm2.55-3.12a2.46,2.46,0,0,1-2.4,2,2.82,2.82,0,0,1-2.87-3,2.75,2.75,0,0,1,2.83-3,2.29,2.29,0,0,1,2.44,2h-.69A1.7,1.7,0,0,0,432.06,29a2.1,2.1,0,0,0-2.13,2.35,2.21,2.21,0,0,0,2.17,2.37,1.67,1.67,0,0,0,1.71-1.39Z"/><path class="c" d="M347.29,60.69A36.36,36.36,0,0,1,340,82.57a36.86,36.86,0,0,1-9.73,9,36.49,36.49,0,1,1,17-30.86Z"/><path class="d" d="M340,82.57a36.86,36.86,0,0,1-9.73,9A55.59,55.59,0,0,0,307.76,64a54.8,54.8,0,0,1-2.66,15.2A55.27,55.27,0,0,0,295.49,62a57.09,57.09,0,0,0-4.75-5.08,55.72,55.72,0,0,0-13.16-9.24,54.24,54.24,0,0,1,9.59-3.75h0a54.89,54.89,0,0,1,15.26-2.14l1.5,0a55.07,55.07,0,0,1,29.31,9.33c-1.5-.13-3-.19-4.55-.19a55.88,55.88,0,0,0-12.22,1.35A55.47,55.47,0,0,1,340,82.57Z"/></svg>